nColumns=19
nRows=136
DataType=double
version=3
OpenSimVersion=4.1
endheader
time	ground_force_calcn_r_vx	ground_force_calcn_r_vy	ground_force_calcn_r_vz	ground_force_calcn_r_px	ground_force_calcn_r_py	ground_force_calcn_r_pz	ground_force_calcn_r_mx	ground_force_calcn_r_my	ground_force_calcn_r_mz	ground_force_calcn_l_vx	ground_force_calcn_l_vy	ground_force_calcn_l_vz	ground_force_calcn_l_px	ground_force_calcn_l_py	ground_force_calcn_l_pz	ground_force_calcn_l_mx	ground_force_calcn_l_my	ground_force_calcn_l_mz
1.69	0	0	0	0	0	0	0	0	0	241.455	970.874	14.3978	0.583308	0	-0.394672	0.0864522	0.347618	0.0051551
1.7	0	0	0	0	0	0	0	0	0	231.948	737.25	2.53384	0.545519	0	-0.390199	-0.0209427	-0.0665664	-0.000228781
1.71	0	0	0	0	0	0	0	0	0	201.832	513.456	-2.02669	0.504806	0	-0.385186	0.427337	1.08714	-0.0042911
1.72	0	0	0	0	0	0	0	0	0	162.313	313.123	-9.13305	0.445434	0	-0.378584	1.60273	3.09188	-0.0901827
1.73	0	0	0	0	0	0	0	0	0	113.9	155.7	-15.9058	0.329303	0	-0.367123	2.61132	3.56965	-0.364665
1.74	0	0	0	0	0	0	0	0	0	60.5012	63.2268	-15.7447	0.0198081	0	-0.333943	1.85068	1.93405	-0.481616
1.75	0	0	0	0	0	0	0	0	0	0	0	0	0	0	0	0	0	0
1.76	0	0	0	0	0	0	0	0	0	0	0	0	0	0	0	0	0	0
1.77	0	0	0	0	0	0	0	0	0	0	0	0	0	0	0	0	0	0
1.78	0	0	0	0	0	0	0	0	0	0	0	0	0	0	0	0	0	0
1.79	0	0	0	0	0	0	0	0	0	0	0	0	0	0	0	0	0	0
1.8	0	0	0	0	0	0	0	0	0	0	0	0	0	0	0	0	0	0
1.81	0	0	0	0	0	0	0	0	0	0	0	0	0	0	0	0	0	0
1.82	-33.0355	113.084	-10.2615	1.13186	0	-0.271312	1.02773	-3.51803	0.319234	0	0	0	0	0	0	0	0	0
1.83	-60.6174	318.604	-31.6575	1.05545	0	-0.310328	0.555586	-2.92015	0.290155	0	0	0	0	0	0	0	0	0
1.84	-93.327	690.045	-27.432	1.04007	0	-0.314104	-0.0559938	0.41401	-0.0164585	0	0	0	0	0	0	0	0	0
1.85	-142.549	1097.93	19.9844	1.03011	0	-0.314114	-0.566505	4.36328	0.0794202	0	0	0	0	0	0	0	0	0
1.86	-204.98	1332.87	70.9598	1.01973	0	-0.313299	-0.935822	6.08515	0.323962	0	0	0	0	0	0	0	0	0
1.87	-257.847	1394.12	47.0538	1.00451	0	-0.311742	-0.886479	4.79299	0.161771	0	0	0	0	0	0	0	0	0
1.88	-279.509	1428.88	-34.6867	0.97995	0	-0.30894	-0.368161	1.88208	-0.0456884	0	0	0	0	0	0	0	0	0
1.89	-257.802	1504.05	-65.9345	0.945371	0	-0.305044	0.128053	-0.747074	0.0327503	0	0	0	0	0	0	0	0	0
1.9	-209.001	1589.58	-45.5791	0.905646	0	-0.301142	0.2934	-2.23148	0.0639848	0	0	0	0	0	0	0	0	0
1.91	-143.266	1633.97	-59.7509	0.865365	0	-0.298397	0.24891	-2.83885	0.103811	0	0	0	0	0	0	0	0	0
1.92	-72.343	1622.5	-101.785	0.825026	0	-0.297134	0.143686	-3.22257	0.202163	0	0	0	0	0	0	0	0	0
1.93	-1.45877	1566.98	-95.0986	0.782795	0	-0.296995	0.00353013	-3.79199	0.230132	0	0	0	0	0	0	0	0	0
1.94	74.2385	1466.01	-49.9238	0.737533	0	-0.297663	-0.232038	-4.5821	0.15604	0	0	0	0	0	0	0	0	0
1.95	148.368	1311.67	-29.2748	0.690316	0	-0.299019	-0.606782	-5.36434	0.119725	0	0	0	0	0	0	0	0	0
1.96	197.582	1110.33	-24.6531	0.644171	0	-0.300752	-1.02	-5.73199	0.12727	0	0	0	0	0	0	0	0	0
1.97	208.459	880.212	-4.00923	0.602133	0	-0.302198	-1.22908	-5.18976	0.0236385	0	0	0	0	0	0	0	0	0
1.98	188.46	643.766	17.9671	0.564424	0	-0.30264	-1.08557	-3.70822	-0.103494	0	0	0	0	0	0	0	0	0
1.99	151.942	420.499	23.7508	0.526105	0	-0.302013	-0.914776	-2.53165	-0.142994	0	0	0	0	0	0	0	0	0
2	111.396	231.068	15.9362	0.473243	0	-0.302828	-1.61135	-3.3424	-0.230518	0	0	0	0	0	0	0	0	0
2.01	68.9952	101.721	1.63279	0.35295	0	-0.311182	-3.56879	-5.26153	-0.0844566	0	0	0	0	0	0	0	0	0
2.02	0	0	0	0	0	0	0	0	0	0	0	0	0	0	0	0	0	0
2.03	0	0	0	0	0	0	0	0	0	0	0	0	0	0	0	0	0	0
2.04	0	0	0	0	0	0	0	0	0	0	0	0	0	0	0	0	0	0
2.05	0	0	0	0	0	0	0	0	0	0	0	0	0	0	0	0	0	0
2.06	0	0	0	0	0	0	0	0	0	0	0	0	0	0	0	0	0	0
2.07	0	0	0	0	0	0	0	0	0	0	0	0	0	0	0	0	0	0
2.08	0	0	0	0	0	0	0	0	0	0	0	0	0	0	0	0	0	0
2.09	0	0	0	0	0	0	0	0	0	0	0	0	0	0	0	0	0	0
2.1	0	0	0	0	0	0	0	0	0	0	0	0	0	0	0	0	0	0
2.11	0	0	0	0	0	0	0	0	0	-20.991	106.662	-11.8895	1.04138	0	-0.39727	0.0840227	-0.426943	0.0475912
2.12	0	0	0	0	0	0	0	0	0	-29.9004	276.047	-11.976	1.04848	0	-0.391315	0.218541	-2.01762	0.0875324
2.13	0	0	0	0	0	0	0	0	0	-46.424	544.892	2.15679	1.05025	0	-0.389518	0.0824487	-0.967724	-0.00383044
2.14	0	0	0	0	0	0	0	0	0	-95.4588	826.268	26.4174	1.04925	0	-0.389519	-0.131228	1.13588	0.0363164
2.15	0	0	0	0	0	0	0	0	0	-172.141	1010.38	40.4869	1.04365	0	-0.391268	-0.346628	2.03452	0.0815253
2.16	0	0	0	0	0	0	0	0	0	-241.368	1113.66	24.8136	1.02906	0	-0.394051	-0.259737	1.19841	0.026702
2.17	0	0	0	0	0	0	0	0	0	-275.948	1233.89	10.5713	1.00228	0	-0.396684	0.0622899	-0.278527	-0.00238626
2.18	0	0	0	0	0	0	0	0	0	-265.27	1398.49	42.2919	0.965724	0	-0.398423	0.230996	-1.2178	-0.0368275
2.19	0	0	0	0	0	0	0	0	0	-221.073	1554.39	88.889	0.924896	0	-0.399503	0.17144	-1.20541	-0.0689327
2.2	0	0	0	0	0	0	0	0	0	-153.885	1648.55	98.4421	0.882799	0	-0.400511	0.0455453	-0.487921	-0.0291359
2.21	0	0	0	0	0	0	0	0	0	-72.2746	1671.85	82.4593	0.839423	0	-0.401462	-0.0230278	0.532679	0.0262728
2.22	0	0	0	0	0	0	0	0	0	14.0337	1635.35	81.2787	0.794232	0	-0.401814	0.0131521	1.53261	0.0761725
2.23	0	0	0	0	0	0	0	0	0	96.1675	1542	88.0258	0.747824	0	-0.401056	0.141051	2.26169	0.129109
2.24	0	0	0	0	0	0	0	0	0	168.497	1388.71	72.1164	0.701899	0	-0.399007	0.306721	2.52791	0.131276
2.25	0	0	0	0	0	0	0	0	0	219.962	1183.43	36.6587	0.658326	0	-0.395766	0.417653	2.24704	0.0696057
2.26	0	0	0	0	0	0	0	0	0	239.468	947.991	8.90477	0.617964	0	-0.391545	0.424484	1.68042	0.0157847
2.27	0	0	0	0	0	0	0	0	0	226.575	706.337	-1.24819	0.57932	0	-0.386551	0.493783	1.53934	-0.00272023
2.28	0	0	0	0	0	0	0	0	0	193.574	477.958	-5.95333	0.536845	0	-0.380724	0.945628	2.33487	-0.0290826
2.29	0	0	0	0	0	0	0	0	0	151.156	279.66	-13.3437	0.477359	0	-0.37295	1.80063	3.33142	-0.158955
2.3	0	0	0	0	0	0	0	0	0	100.889	132.553	-18.9725	0.365406	0	-0.359571	2.21506	2.91026	-0.416549
2.31	0	0	0	0	0	0	0	0	0	49.5199	52.3975	-13.9487	-0.0392599	0	-0.299154	1.17024	1.23824	-0.329632
2.32	0	0	0	0	0	0	0	0	0	0	0	0	0	0	0	0	0	0
2.33	0	0	0	0	0	0	0	0	0	0	0	0	0	0	0	0	0	0
2.34	0	0	0	0	0	0	0	0	0	0	0	0	0	0	0	0	0	0
2.35	0	0	0	0	0	0	0	0	0	0	0	0	0	0	0	0	0	0
2.36	0	0	0	0	0	0	0	0	0	0	0	0	0	0	0	0	0	0
2.37	0	0	0	0	0	0	0	0	0	0	0	0	0	0	0	0	0	0
2.38	0	0	0	0	0	0	0	0	0	0	0	0	0	0	0	0	0	0
2.39	-21.6792	68.0685	-7.34285	2.4351	0	0.190317	0.163899	-0.514612	0.0555135	0	0	0	0	0	0	0	0	0
2.4	-39.107	201.633	-22.7058	1.09032	0	-0.300254	0.203286	-1.04813	0.118029	0	0	0	0	0	0	0	0	0
2.41	-59.4314	472.05	-24.806	1.07396	0	-0.303024	0.00815008	-0.0647341	0.00340174	0	0	0	0	0	0	0	0	0
2.42	-91.5722	827.613	-0.987958	1.06571	0	-0.302388	-0.224844	2.0321	-0.0024258	0	0	0	0	0	0	0	0	0
2.43	-150.578	1110.41	36.9987	1.05647	0	-0.301109	-0.450834	3.3246	0.110775	0	0	0	0	0	0	0	0	0
2.44	-216.82	1243.2	37.8518	1.04205	0	-0.299277	-0.466341	2.6739	0.0814122	0	0	0	0	0	0	0	0	0
2.45	-254.769	1318.29	-18.6222	1.01857	0	-0.296481	-0.127923	0.661931	-0.00935044	0	0	0	0	0	0	0	0	0
2.46	-242.783	1418.56	-62.2649	0.985193	0	-0.292747	0.243237	-1.42122	0.0623813	0	0	0	0	0	0	0	0	0
2.47	-198.352	1534.4	-55.1953	0.945997	0	-0.288754	0.372571	-2.88211	0.103675	0	0	0	0	0	0	0	0	0
2.48	-141.474	1616.02	-54.0657	0.905426	0	-0.285386	0.336214	-3.84049	0.128488	0	0	0	0	0	0	0	0	0
2.49	-77.2083	1637.53	-86.4677	0.864474	0	-0.28311	0.21846	-4.63337	0.244659	0	0	0	0	0	0	0	0	0
2.5	-7.33302	1608.12	-101.719	0.822034	0	-0.281832	0.0244205	-5.35538	0.338746	0	0	0	0	0	0	0	0	0
2.51	68.5303	1537.35	-77.3536	0.777561	0	-0.281327	-0.267421	-5.99913	0.301852	0	0	0	0	0	0	0	0	0
2.52	142.586	1417.25	-53.6767	0.731991	0	-0.281517	-0.667421	-6.63393	0.251252	0	0	0	0	0	0	0	0	0
2.53	199.352	1245.48	-45.1383	0.687159	0	-0.282349	-1.1641	-7.27293	0.263583	0	0	0	0	0	0	0	0	0
2.54	227.934	1034.62	-29.3364	0.644576	0	-0.283593	-1.66399	-7.55304	0.214165	0	0	0	0	0	0	0	0	0
2.55	226.843	801.234	-5.73134	0.60423	0	-0.284819	-1.93107	-6.82075	0.0487898	0	0	0	0	0	0	0	0	0
2.56	200.037	566.984	9.40776	0.56388	0	-0.285348	-1.7293	-4.90152	-0.0813292	0	0	0	0	0	0	0	0	0
2.57	158.549	355.349	10.5435	0.518165	0	-0.284172	-1.20867	-2.70892	-0.0803757	0	0	0	0	0	0	0	0	0
2.58	110.958	186.914	1.52363	0.454239	0	-0.278732	-0.90637	-1.52682	-0.0124459	0	0	0	0	0	0	0	0	0
2.59	62.5224	80.0659	-5.58081	0.318288	0	-0.244179	-1.10863	-1.4197	0.0989571	0	0	0	0	0	0	0	0	0
2.6	0	0	0	0	0	0	0	0	0	0	0	0	0	0	0	0	0	0
2.61	0	0	0	0	0	0	0	0	0	0	0	0	0	0	0	0	0	0
2.62	0	0	0	0	0	0	0	0	0	0	0	0	0	0	0	0	0	0
2.63	0	0	0	0	0	0	0	0	0	0	0	0	0	0	0	0	0	0
2.64	0	0	0	0	0	0	0	0	0	0	0	0	0	0	0	0	0	0
2.65	0	0	0	0	0	0	0	0	0	0	0	0	0	0	0	0	0	0
2.66	0	0	0	0	0	0	0	0	0	0	0	0	0	0	0	0	0	0
2.67	0	0	0	0	0	0	0	0	0	0	0	0	0	0	0	0	0	0
2.68	0	0	0	0	0	0	0	0	0	-17.0906	50.9247	-9.9484	0.947805	0	-0.392241	-0.480945	1.43307	-0.279957
2.69	0	0	0	0	0	0	0	0	0	-38.4623	158.701	-18.623	1.1075	0	-0.378331	0.44815	-1.84913	0.216989
2.7	0	0	0	0	0	0	0	0	0	-59.1936	383.052	-13.5523	1.09542	0	-0.374961	0.543437	-3.51667	0.124419
2.71	0	0	0	0	0	0	0	0	0	-78.8006	698.476	14.1594	1.08742	0	-0.373752	0.249749	-2.21373	-0.0448765
2.72	0	0	0	0	0	0	0	0	0	-128.876	978.209	52.3217	1.07846	0	-0.373525	0.0376647	-0.285888	-0.0152914
2.73	0	0	0	0	0	0	0	0	0	-202.459	1122.01	58.772	1.06654	0	-0.374488	-0.00428981	0.0237737	0.00124529
2.74	0	0	0	0	0	0	0	0	0	-261.412	1195.71	15.2467	1.0478	0	-0.376036	0.237988	-1.08856	-0.0138805
2.75	0	0	0	0	0	0	0	0	0	-281.56	1302.69	-4.43302	1.01947	0	-0.377266	0.445559	-2.06145	0.00701509
2.76	0	0	0	0	0	0	0	0	0	-262.026	1451.48	43.3616	0.983389	0	-0.377724	0.352989	-1.95538	-0.0584148
2.77	0	0	0	0	0	0	0	0	0	-217.04	1580.5	84.7133	0.943542	0	-0.377798	0.142306	-1.03629	-0.0555439
2.78	0	0	0	0	0	0	0	0	0	-153.743	1643.34	67.2114	0.902114	0	-0.377909	0.00314602	-0.0336274	-0.00137534
2.79	0	0	0	0	0	0	0	0	0	-75.4445	1645.73	39.3521	0.859259	0	-0.377764	-0.0325229	0.709445	0.016964
2.8	0	0	0	0	0	0	0	0	0	10.6378	1601.78	46.103	0.814892	0	-0.376813	0.00806295	1.21407	0.0349439
2.81	0	0	0	0	0	0	0	0	0	93.4779	1505.74	51.6279	0.769604	0	-0.374872	0.093963	1.51355	0.0518958
2.82	0	0	0	0	0	0	0	0	0	163.868	1352.9	23.9184	0.724339	0	-0.372086	0.184433	1.52268	0.02692
2.83	0	0	0	0	0	0	0	0	0	212.111	1152.28	-8.78876	0.680024	0	-0.368608	0.220509	1.1979	-0.00913671
2.84	0	0	0	0	0	0	0	0	0	232.757	925.946	-20.1046	0.637518	0	-0.364496	0.201912	0.803239	-0.0174403
2.85	0	0	0	0	0	0	0	0	0	221.935	696.659	-21.1536	0.597112	0	-0.359859	0.262283	0.823313	-0.0249994
2.86	0	0	0	0	0	0	0	0	0	187.238	477.457	-24.2676	0.556713	0	-0.354863	0.529837	1.35108	-0.068671
2.87	0	0	0	0	0	0	0	0	0	143.136	283.267	-26.0504	0.50814	0	-0.349351	0.842251	1.66681	-0.153287
2.88	0	0	0	0	0	0	0	0	0	96.09	138.962	-20.9416	0.424289	0	-0.341731	0.710121	1.02695	-0.154762
2.89	0	0	0	0	0	0	0	0	0	50.0577	58.3206	-8.53588	0.129844	0	-0.301498	-0.0270487	-0.0315135	0.00461236
2.9	0	0	0	0	0	0	0	0	0	0	0	0	0	0	0	0	0	0
2.91	0	0	0	0	0	0	0	0	0	0	0	0	0	0	0	0	0	0
2.92	0	0	0	0	0	0	0	0	0	0	0	0	0	0	0	0	0	0
2.93	0	0	0	0	0	0	0	0	0	0	0	0	0	0	0	0	0	0
2.94	0	0	0	0	0	0	0	0	0	0	0	0	0	0	0	0	0	0
2.95	0	0	0	0	0	0	0	0	0	0	0	0	0	0	0	0	0	0
2.96	0	0	0	0	0	0	0	0	0	0	0	0	0	0	0	0	0	0
2.97	0	0	0	0	0	0	0	0	0	0	0	0	0	0	0	0	0	0
2.98	-20.9936	100.048	-13.82	1.16203	0	-0.267975	-0.161225	0.768343	-0.106134	0	0	0	0	0	0	0	0	0
2.99	-44.5446	284.754	-26.2439	1.09114	0	-0.299527	-0.00569851	0.0364281	-0.00335734	0	0	0	0	0	0	0	0	0
3	-73.3311	610.154	-36.1279	1.07571	0	-0.302677	-0.107101	0.891141	-0.0527654	0	0	0	0	0	0	0	0	0
3.01	-119.86	983.766	-14.6547	1.06452	0	-0.303615	-0.483048	3.96467	-0.0590598	0	0	0	0	0	0	0	0	0
3.02	-187.051	1238.24	33.8022	1.05218	0	-0.303909	-1.02826	6.8069	0.185818	0	0	0	0	0	0	0	0	0
3.03	-248.493	1355.46	34.6772	1.03476	0	-0.303677	-1.32861	7.24722	0.185408	0	0	0	0	0	0	0	0	0
3.04	-271.11	1441.09	-24.1115	1.00853	0	-0.302521	-1.0303	5.47653	-0.0916305	0	0	0	0	0	0	0	0	0
